# xmcd CD database file
#
# Track frame offsets:
#	150
#	22943
#	48043
#	71045
#	94975
#	119315
#	141334
#	163396
#	185646
#	209874
#	231000
#	252266
#
# Disc length: 3703 seconds
#
# Revision: 3
# Processed by: cddbd v1.5.1PL0 Copyright (c) Steve Scherf et al.
# Submitted via: CDex 1.51
#
DISCID=b30e750c
DTITLE=槇原　敬之 - Explorer
DYEAR=1900
DGENRE=JPop
TTITLE0=優しい歌が歌えない
TTITLE1=夏は憶えている
TTITLE2=Tag Team
TTITLE3=武士は食わねど高楊枝
TTITLE4=Happy Ending
TTITLE5=君の名前を呼んだ後に
TTITLE6=とりあえず何か食べよう
TTITLE7=ハトマメ〜Say Hello To The World.〜
TTITLE8=The Fog
TTITLE9=世界に一つだけの花
TTITLE10=Boy, I'm Gonna Try So Hard
TTITLE11=僕が一番欲しかったもの
EXTD=
EXTT0=
EXTT1=
EXTT2=
EXTT3=
EXTT4=
EXTT5=
EXTT6=
EXTT7=
EXTT8=
EXTT9=
EXTT10=
EXTT11=
PLAYORDER=
